<?xml version="1.0" encoding="utf-8"?>
<!-- Generator: Adobe Illustrator 21.0.0, SVG Export Plug-In . SVG Version: 6.00 Build 0)  -->
<svg version="1.1" id="Layer_1" xmlns="http://www.w3.org/2000/svg" xmlns:xlink="http://www.w3.org/1999/xlink" x="0px" y="0px"
	 viewBox="0 0 96 120" style="enable-background:new 0 0 96 120;" xml:space="preserve">
<g>
	<path d="M47.1,17.7c-12.7,0-23,10.3-23,23c0,12.7,10.3,23,23,23s23-10.3,23-23C70.1,28,59.7,17.7,47.1,17.7z M47.1,59.1
		c-10.2,0-18.5-8.3-18.5-18.5s8.3-18.5,18.5-18.5s18.5,8.3,18.5,18.5C65.5,50.9,57.3,59.1,47.1,59.1z"/>
	<path d="M47.1,1C24.1,1,5.5,19.7,5.5,42.6c0,13.4,13.4,33.4,25.3,51.1c6.5,9.7,12.1,18.1,14.3,23.5c0.3,0.9,1.2,1.4,2.1,1.4
		c0.9,0,1.8-0.6,2.1-1.4c2.1-5.4,7.7-13.8,14.2-23.5C75.3,76.1,88.7,56,88.7,42.6C88.7,19.7,70,1,47.1,1z M59.7,91.3
		c-5.2,7.7-9.7,14.5-12.6,19.9c-2.9-5.4-7.4-12.2-12.6-20C23.5,75,10,54.7,10,42.6C10,22.2,26.6,5.5,47.1,5.5
		c20.5,0,37.1,16.6,37.1,37.1C84.2,54.7,70.6,75,59.7,91.3z"/>
</g>
</svg>
